<svg fill="#cc0038" id="Layer_1" enable-background="new 0 0 508.52 508.52" height="512" viewBox="0 0 508.52 508.52" width="512" xmlns="http://www.w3.org/2000/svg"><path d="m342.201 317.481 29.837-29.837c30.479-30.478 47.264-71.001 47.264-114.104 0-89.182-72.172-161.367-161.367-161.367-43.104 0-83.626 16.785-114.104 47.264-62.917 62.917-62.917 165.29 0 228.207l29.06 29.061c-94.589 10.676-172.891 40.351-172.891 87.695 0 122.368 508.52 122.822 508.52 0 0-46.243-74.704-75.629-166.319-86.919zm-213.635-143.941c0-71.496 57.86-129.367 129.368-129.367 34.555 0 67.042 13.457 91.477 37.891 50.44 50.44 50.44 132.513 0 182.953l-91.478 91.477-91.477-91.477c-24.434-24.435-37.89-56.922-37.89-91.477zm289.296 269.484c-89.949 28.758-237.239 28.763-327.205 0-40.519-12.955-58.657-28.733-58.657-38.624 0-9.89 18.138-25.668 58.657-38.623 31.039-9.923 69.543-16.656 111.608-19.698l44.355 44.355c6.242 6.244 16.381 6.248 22.627 0l43.817-43.817c104.55 8.636 163.455 38.64 163.455 57.783.001 9.891-18.137 25.669-58.657 38.624z"/><path d="m327.849 173.54c0-38.551-31.364-69.915-69.915-69.915s-69.914 31.364-69.914 69.915 31.363 69.914 69.914 69.914 69.915-31.363 69.915-69.914zm-107.829 0c0-20.906 17.008-37.915 37.914-37.915s37.915 17.009 37.915 37.915-17.009 37.914-37.915 37.914-37.914-17.008-37.914-37.914z"/></svg>