<svg id="Capa_1" enable-background="new 0 0 512 512" fill="#cc0038" height="512" viewBox="0 0 512 512" width="512" xmlns="http://www.w3.org/2000/svg"><g><path d="m94.908 153.001c0-4.138-3.354-7.492-7.492-7.492h-14.023c-4.138 0-7.492 3.354-7.492 7.492s3.354 7.492 7.492 7.492h14.023c4.138-.001 7.492-3.354 7.492-7.492z"/><path d="m118.641 186.446c0-4.138-3.354-7.491-7.492-7.491h-14.024c-4.138 0-7.491 3.354-7.491 7.491 0 4.138 3.354 7.492 7.491 7.492h14.024c4.139 0 7.492-3.354 7.492-7.492z"/><path d="m77.709 244.755h-14.023c-4.138 0-7.492 3.354-7.492 7.491s3.354 7.492 7.492 7.492h14.023c4.138 0 7.492-3.354 7.492-7.492s-3.354-7.491-7.492-7.491z"/><path d="m213.837 50.454h14.024c4.138 0 7.492-3.354 7.492-7.492s-3.354-7.492-7.492-7.492h-14.024c-4.138 0-7.492 3.354-7.492 7.492s3.354 7.492 7.492 7.492z"/><path d="m497.607 444.858-54.293-54.291c-3.795-3.796-8.842-5.887-14.21-5.887-3.172 0-6.223.748-8.979 2.128l-20.662-20.661c9.356-15.74 14.352-33.761 14.352-52.551 0-8.975-1.146-17.773-3.356-26.233 9.245-23.702 14.344-49.462 14.344-76.397.001-116.327-94.638-210.966-210.966-210.966-116.327 0-210.967 94.639-210.967 210.967s94.639 210.967 210.966 210.967c22.651 0 44.471-3.609 64.938-10.25 10.178 3.302 20.923 5.02 31.933 5.02 18.789 0 36.809-4.995 52.549-14.351l20.666 20.666c-3.75 7.522-2.509 16.92 3.754 23.184l11.43 11.43c2.926 2.925 7.669 2.925 10.595 0 2.926-2.927 2.926-7.669 0-10.596l-11.429-11.428c-1.993-1.993-1.993-5.236 0-7.228l27.219-27.221c.965-.966 2.249-1.497 3.613-1.497 1.366 0 2.648.532 3.614 1.498l54.293 54.292c4.601 4.6 7.135 10.718 7.135 17.224s-2.533 12.623-7.135 17.223c-9.497 9.498-24.949 9.497-34.448 0l-18.163-18.163c-2.924-2.924-7.668-2.925-10.594.001s-2.926 7.669.001 10.595l18.163 18.163c7.671 7.67 17.744 11.505 27.819 11.504 10.073-.001 20.149-3.835 27.818-11.504 7.431-7.43 11.523-17.31 11.523-27.818s-4.092-20.389-11.523-27.82zm-283.77-429.875c31.328 0 60.956 7.401 87.246 20.527-16.8.812-30.219 14.732-30.219 31.73 0 8.492 3.309 16.472 9.31 22.46 5.997 5.996 13.974 9.299 22.46 9.299h13.476c8.958 0 16.245 7.288 16.245 16.245 0 4.338-1.691 8.417-4.753 11.48-3.073 3.066-7.155 4.754-11.493 4.754h-29.158c-17.22 0-31.229 14.009-31.229 31.229 0 8.341 3.248 16.183 9.146 22.082 5.9 5.899 13.741 9.147 22.083 9.147h49.304c4.138 0 7.492-3.354 7.492-7.492s-3.354-7.491-7.492-7.491h-49.304c-4.339 0-8.418-1.691-11.487-4.759s-4.758-7.147-4.758-11.486c0-8.958 7.288-16.245 16.245-16.245h29.158c8.334 0 16.174-3.243 22.082-9.136 5.899-5.9 9.147-13.741 9.147-22.082 0-17.22-14.009-31.229-31.229-31.229h-13.476c-4.484 0-8.698-1.744-11.87-4.917-3.17-3.163-4.917-7.375-4.917-11.859 0-9.256 7.531-16.786 16.787-16.786h23.52c1.054 0 3.576 2.566 4.453 3.219 10.685 7.952 20.579 17.005 29.454 26.949 5.112 5.728 9.89 11.754 14.302 18.041 13.268 18.902 23.112 39.964 29.027 62.464 1.507 5.732 2.892 11.756 3.802 17.827-.061 0-36.091 0-36.091 0-4.138 0-7.492 3.354-7.492 7.491 0 4.138 3.354 7.492 7.492 7.492h37.971c.486 5.615.748 11.292.748 17.03 0 18.974-2.724 37.32-7.78 54.684-4.783-9.084-10.958-17.497-18.424-24.963-19.474-19.474-45.367-30.199-72.909-30.199-16.666 0-32.726 3.934-47.128 11.35-7.485-11.068-20.146-18.362-34.485-18.362h-37.723c-15.123 0-27.425-12.302-27.425-27.425v-2.328c0-6.71 2.609-13.011 7.351-17.745 4.742-4.741 11.048-7.352 17.756-7.352 10.361 0 20.098-4.036 27.407-11.357 7.33-7.318 11.366-17.054 11.366-27.416 0-21.385-17.394-38.784-38.773-38.784h-112.319c35.371-34.67 83.779-56.087 137.104-56.087zm-195.983 195.984c0-47.43 16.939-90.975 45.08-124.913h126.12c13.118 0 23.79 10.677 23.79 23.801 0 6.354-2.475 12.325-6.978 16.821-4.487 4.494-10.458 6.969-16.812 6.969-10.71 0-20.779 4.169-28.346 11.736-7.573 7.561-11.745 17.627-11.745 28.344v2.328c0 23.384 19.025 42.409 42.409 42.409h37.723c8.938 0 16.856 4.431 21.687 11.208-4.577 3.283-8.921 6.958-12.983 11.02-9.105 9.106-16.297 19.615-21.375 31.04h-82.624c-13.645 0-24.746 11.101-24.746 24.746 0 6.615 2.574 12.833 7.248 17.508 4.674 4.674 10.888 7.248 17.498 7.248h25.891c11.339 0 20.564 9.22 20.564 20.553 0 5.485-2.139 10.645-6.024 14.53-3.886 3.885-9.049 6.024-14.54 6.024h-70.205c-43.711-35.977-71.632-90.474-71.632-151.372zm195.983 195.984c-37.969 0-73.443-10.865-103.498-29.632h49.352c9.492 0 18.419-3.698 25.135-10.412 6.714-6.715 10.412-15.638 10.412-25.125 0-19.595-15.946-35.536-35.547-35.536h-25.891c-2.608 0-5.059-1.016-6.902-2.86-1.845-1.844-2.86-4.299-2.86-6.912 0-5.383 4.38-9.763 9.763-9.763h77.327c-2.323 8.66-3.528 17.68-3.528 26.886 0 27.542 10.725 53.435 30.2 72.91 6.028 6.028 12.671 11.215 19.787 15.507-14.073 3.224-28.714 4.937-43.75 4.937zm34.558-31.04c-34.36-34.36-34.36-90.267 0-124.627 17.179-17.18 39.747-25.77 62.313-25.77s45.134 8.59 62.313 25.77c34.36 34.36 34.36 90.267 0 124.627-34.358 34.36-90.268 34.36-124.626 0zm145.124 35.515-17.793-17.793c2.731-2.227 5.366-4.601 7.891-7.126s4.9-5.16 7.126-7.891l17.793 17.792z"/><path d="m361.327 262.979c-13.521-13.52-31.498-20.967-50.619-20.967s-37.098 7.447-50.618 20.967c-13.521 13.521-20.968 31.497-20.968 50.618 0 19.122 7.447 37.098 20.967 50.619 13.521 13.52 31.498 20.967 50.619 20.967s37.098-7.447 50.619-20.967c13.52-13.521 20.966-31.497 20.966-50.619 0-19.121-7.446-37.097-20.966-50.618zm-10.596 90.641c-22.069 22.071-57.977 22.069-80.048 0-10.69-10.69-16.578-24.904-16.578-40.024 0-15.119 5.888-29.333 16.579-40.022 11.034-11.036 25.529-16.553 40.024-16.553s28.989 5.517 40.024 16.553c22.069 22.069 22.069 57.977-.001 80.046z"/></g></svg>